<svg xmlns="http://www.w3.org/2000/svg" viewBox="0 0 1600 900" preserveAspectRatio="xMidYMid slice">
  <defs>
    <linearGradient id="bg" x1="0" y1="0" x2="1" y2="1">
      <stop offset="0" stop-color="#1e1b4b"/>
      <stop offset="0.55" stop-color="#312e81"/>
      <stop offset="1" stop-color="#4f46e5"/>
    </linearGradient>
    <radialGradient id="glowA" cx="0.8" cy="0.15" r="0.6">
      <stop offset="0" stop-color="#a78bfa" stop-opacity="0.5"/>
      <stop offset="1" stop-color="#a78bfa" stop-opacity="0"/>
    </radialGradient>
    <radialGradient id="glowB" cx="0.12" cy="0.85" r="0.55">
      <stop offset="0" stop-color="#22d3ee" stop-opacity="0.35"/>
      <stop offset="1" stop-color="#22d3ee" stop-opacity="0"/>
    </radialGradient>
    <pattern id="grid" width="80" height="80" patternUnits="userSpaceOnUse">
      <path d="M80 0H0v80" fill="none" stroke="#c7d2fe" stroke-opacity="0.09" stroke-width="1"/>
    </pattern>
  </defs>
  <rect width="1600" height="900" fill="url(#bg)"/>
  <rect width="1600" height="900" fill="url(#grid)"/>
  <rect width="1600" height="900" fill="url(#glowA)"/>
  <rect width="1600" height="900" fill="url(#glowB)"/>
  <g opacity="0.55">
    <rect x="1050" y="180" width="380" height="250" rx="18" fill="#312e81" stroke="#818cf8" stroke-opacity="0.5" stroke-width="2"/>
    <rect x="1050" y="180" width="380" height="46" rx="18" fill="#3730a3"/>
    <circle cx="1082" cy="203" r="7" fill="#f472b6"/>
    <circle cx="1106" cy="203" r="7" fill="#fbbf24"/>
    <circle cx="1130" cy="203" r="7" fill="#34d399"/>
    <rect x="1084" y="260" width="200" height="16" rx="8" fill="#818cf8" opacity="0.8"/>
    <rect x="1084" y="292" width="300" height="10" rx="5" fill="#c7d2fe" opacity="0.5"/>
    <rect x="1084" y="314" width="260" height="10" rx="5" fill="#c7d2fe" opacity="0.5"/>
    <rect x="1084" y="352" width="110" height="34" rx="17" fill="#6366f1"/>
  </g>
  <g opacity="0.4">
    <rect x="180" y="480" width="300" height="200" rx="16" fill="#1e1b4b" stroke="#a78bfa" stroke-opacity="0.5" stroke-width="2"/>
    <rect x="208" y="516" width="150" height="13" rx="6" fill="#a78bfa" opacity="0.9"/>
    <rect x="208" y="548" width="240" height="9" rx="4" fill="#c7d2fe" opacity="0.5"/>
    <rect x="208" y="568" width="210" height="9" rx="4" fill="#c7d2fe" opacity="0.5"/>
    <rect x="208" y="606" width="90" height="28" rx="14" fill="#8b5cf6"/>
  </g>
  <circle cx="640" cy="160" r="10" fill="#f0abfc" opacity="0.7"/>
  <circle cx="1380" cy="640" r="14" fill="#67e8f9" opacity="0.55"/>
  <circle cx="320" cy="300" r="7" fill="#c7d2fe" opacity="0.7"/>
  <path d="M0 780 C 380 690, 700 860, 1050 780 S 1500 690, 1600 750 V900 H0 Z" fill="#4338ca" opacity="0.45"/>
  <path d="M0 830 C 420 760, 760 900, 1120 830 S 1520 760, 1600 810 V900 H0 Z" fill="#6366f1" opacity="0.4"/>
</svg>
