<svg xmlns="http://www.w3.org/2000/svg" viewBox="0 0 1600 900" preserveAspectRatio="xMidYMid slice">
  <defs>
    <linearGradient id="bg" x1="0" y1="0" x2="1" y2="1">
      <stop offset="0" stop-color="#1e1b4b"/>
      <stop offset="0.6" stop-color="#3b0764"/>
      <stop offset="1" stop-color="#9d174d"/>
    </linearGradient>
    <radialGradient id="glowA" cx="0.85" cy="0.25" r="0.55">
      <stop offset="0" stop-color="#fbbf24" stop-opacity="0.35"/>
      <stop offset="1" stop-color="#fbbf24" stop-opacity="0"/>
    </radialGradient>
    <radialGradient id="glowB" cx="0.15" cy="0.8" r="0.55">
      <stop offset="0" stop-color="#f472b6" stop-opacity="0.35"/>
      <stop offset="1" stop-color="#f472b6" stop-opacity="0"/>
    </radialGradient>
  </defs>
  <rect width="1600" height="900" fill="url(#bg)"/>
  <rect width="1600" height="900" fill="url(#glowA)"/>
  <rect width="1600" height="900" fill="url(#glowB)"/>
  <g opacity="0.75">
    <rect x="1080" y="230" width="300" height="200" rx="20" fill="#581c87" stroke="#f0abfc" stroke-opacity="0.6" stroke-width="2"/>
    <path d="M1080 260 l150 110 150 -110" fill="none" stroke="#f0abfc" stroke-width="6" stroke-linecap="round" stroke-linejoin="round"/>
  </g>
  <g opacity="0.6">
    <rect x="220" y="500" width="240" height="160" rx="16" fill="#701a75" stroke="#f9a8d4" stroke-opacity="0.6" stroke-width="2"/>
    <path d="M220 524 l120 88 120 -88" fill="none" stroke="#f9a8d4" stroke-width="5" stroke-linecap="round" stroke-linejoin="round"/>
  </g>
  <g fill="none" stroke="#fbcfe8" stroke-opacity="0.4" stroke-width="2" stroke-dasharray="4 10" stroke-linecap="round">
    <path d="M480 560 C 700 460, 900 380, 1120 330"/>
    <path d="M520 620 C 760 560, 980 500, 1200 440"/>
  </g>
  <circle cx="620" cy="200" r="9" fill="#fda4af" opacity="0.8"/>
  <circle cx="1000" cy="680" r="12" fill="#f0abfc" opacity="0.5"/>
  <circle cx="360" cy="320" r="6" fill="#fde68a" opacity="0.8"/>
  <path d="M0 800 C 420 720, 820 880, 1220 800 S 1560 730, 1600 770 V900 H0 Z" fill="#831843" opacity="0.5"/>
</svg>
